<svg version="1.1" id="Layer_1" xmlns="http://www.w3.org/2000/svg" xmlns:xlink="http://www.w3.org/1999/xlink" x="0px" y="0px"
	 width="100%" viewBox="0 0 1024 1024" enable-background="new 0 0 1024 1024" xml:space="preserve">
<path fill="#000000" opacity="1.000000" stroke="none" 
	d="
M390.082794,667.075867 
	C373.622253,684.235413 356.864929,700.484558 334.438141,709.075562 
	C317.341064,715.624939 299.861267,718.658691 281.754181,713.274231 
	C260.069214,706.825684 241.972580,685.314209 239.598572,663.334961 
	C236.136719,631.283813 241.010147,600.242126 251.902283,570.212585 
	C264.303345,536.023071 281.142487,503.806244 304.150726,475.733765 
	C324.411896,451.013000 347.237061,428.311768 377.941925,415.887543 
	C411.162720,402.445343 441.401459,407.122131 468.576477,430.606293 
	C470.563232,432.323181 472.252716,433.200562 475.155518,432.863037 
	C487.103546,431.473694 496.634979,438.842438 499.020721,450.682404 
	C499.768524,454.393555 498.324097,457.644440 496.993073,460.804840 
	C489.036774,479.696625 482.456024,499.084930 475.702820,518.420471 
	C464.493866,550.513672 455.955017,583.296448 450.635681,616.845764 
	C448.388092,631.021484 447.848602,645.408020 455.354675,658.674316 
	C457.185760,661.910645 459.499603,664.690002 462.698059,666.696655 
	C466.863159,669.309814 471.049713,670.281372 475.928619,668.390076 
	C493.026093,661.762268 508.345581,652.094543 522.842102,641.078003 
	C533.061096,633.312195 542.691772,624.828430 551.596008,615.545227 
	C553.670715,613.382202 554.750977,611.103821 554.691833,608.001648 
	C553.648132,553.242432 562.692261,499.811340 575.886169,446.910675 
	C584.425293,412.673187 593.986816,378.752441 606.864502,345.863068 
	C616.061035,322.375214 626.686768,299.645233 643.026855,280.020660 
	C656.343811,264.026855 671.124634,250.232162 691.781738,244.253708 
	C713.141907,238.071777 737.098206,244.925980 748.956909,261.223022 
	C756.291992,271.303436 759.771545,282.916534 760.287903,295.308380 
	C761.246338,318.311157 757.097107,340.628448 750.841431,362.646484 
	C737.896423,408.208130 718.510376,451.088776 696.184937,492.672729 
	C679.300293,524.122375 660.117371,554.172974 638.386841,582.539368 
	C627.946716,596.167664 616.915588,609.319702 605.352600,622.002686 
	C602.364075,625.280640 601.784973,628.300964 603.160156,632.396118 
	C605.668518,639.865662 608.842346,647.019165 613.115723,653.586365 
	C620.373230,664.739380 631.651672,669.475708 644.154968,671.588501 
	C673.856995,676.607422 699.196533,666.414917 722.081482,648.449158 
	C729.675537,642.487488 736.822449,635.958069 744.217163,629.739868 
	C749.501282,625.296509 755.565369,623.403625 762.355530,625.134827 
	C776.150696,628.651855 781.191833,643.601135 771.898010,654.466919 
	C744.370544,686.650513 710.288452,707.914795 667.766602,712.954468 
	C642.244568,715.979370 617.337952,712.390503 594.488525,699.138062 
	C581.612122,691.669983 573.793091,680.145813 567.384888,667.296448 
	C566.643616,665.809998 565.843506,664.349976 564.999634,662.919495 
	C564.766174,662.523804 564.276733,662.278992 563.582458,661.692810 
	C558.673767,665.560547 553.781616,669.482117 548.819458,673.312927 
	C531.457581,686.716187 512.911011,698.095093 492.331085,705.905090 
	C478.375824,711.200928 463.963196,713.329834 449.230438,710.282288 
	C428.915955,706.080139 417.811584,692.208008 411.795227,673.334473 
	C409.927765,667.476318 407.669983,661.741882 406.485596,655.669556 
	C406.246307,654.442749 405.358093,653.342590 404.448700,651.553894 
	C399.503204,656.897827 394.913391,661.857422 390.082794,667.075867 
M438.719727,462.988953 
	C433.742035,455.037506 426.007019,452.017609 417.182007,451.412292 
	C401.189850,450.315338 387.440247,456.972809 374.847595,465.543335 
	C351.942749,481.132202 335.682709,502.992462 321.513824,526.291870 
	C303.304993,556.234741 292.442291,588.978210 287.617706,623.627991 
	C286.036255,634.985840 285.986938,646.532959 289.418610,657.743408 
	C293.803467,672.067444 304.013794,677.783508 318.322296,673.657837 
	C334.190674,669.082397 346.991119,659.415039 357.823090,647.471375 
	C372.953705,630.787842 386.049805,612.520447 396.865784,592.673767 
	C416.618073,556.429504 428.130981,517.140869 439.494537,477.795074 
	C440.850525,473.100037 441.241394,468.305145 438.719727,462.988953 
M623.445984,439.787018 
	C613.559570,478.724365 605.368774,517.967224 600.685730,558.638916 
	C602.609924,558.048950 603.205566,558.044128 603.497559,557.743958 
	C604.420410,556.795227 605.275024,555.770386 606.076111,554.714417 
	C627.980286,525.838806 646.287720,494.729980 663.085205,462.693665 
	C684.653320,421.558502 701.647095,378.626251 712.975037,333.553192 
	C715.881897,321.987183 718.418640,310.231506 717.678772,298.124969 
	C716.962585,286.404968 708.751465,281.554382 698.415466,286.898682 
	C689.631653,291.440399 683.277588,298.774933 677.241089,306.352905 
	C666.632080,319.671204 660.037415,335.209595 653.418274,350.652618 
	C641.142456,379.293060 632.070374,409.044220 623.445984,439.787018 
z"/>
</svg>